<svg width="72" height="25" viewBox="0 0 72 25" xmlns="http://www.w3.org/2000/svg"><title>Boundries + Google</title><desc>Created with Sketch.</desc><g fill="none"><path d="M-16-13h94v48h-94z"/><g fill="#fff"><path d="M37.324 17.233c-3.618 0-5.644-2.96-5.644-5.628 0-3.126 2.528-5.796 5.986-5.796 3.346 0 5.534 2.742 5.534 5.626 0 2.814-2.164 5.797-5.876 5.797zm2.88-2.084c.553-.736.686-1.65.686-2.55 0-2.024-.96-5.88-3.792-5.88-.755 0-1.507.3-2.057.78-.89.803-1.05 1.813-1.05 2.802 0 2.276 1.12 6.018 3.88 6.018.896 0 1.81-.435 2.335-1.17z"/><path d="M57.124 1.92H55.68l.966-.95h3.93l-.875.867c-.113.114-.18.278-.18.453v13.442c0 .344.245.622.58.664l1.327.16-.717.725h-4.646l.875-.875c.113-.115.18-.278.18-.453l.004-14.032"/><path d="M68.727 15.996c-2.108 0-4.05-1.517-4.746-4.222l7.288-2.95c-.39-1.408-1.496-3.015-4.37-3.015-2.37 0-5.266 1.804-5.266 5.484 0 2.9 1.9 5.94 5.633 5.94.766 0 1.965-.05 3.19-.927.462-.324.835-.712 1.16-1.14-.815.403-1.666.83-2.888.83zm-2.262-9.37c1.323 0 2.424 1.096 2.424 2.065 0 .34-.245.487-.71.656l-4.41 1.79c-.685-3.647 1.695-4.51 2.695-4.51z"/><path d="M16.8 16.96c-1.14.315-3.854 1.136-7.31 1.136-4.99 0-9.346-3.234-9.346-9.135C.144 4.86 3.524.146 9.89.146c1.316 0 2.597.22 3.685.538 1.683.495 2.685 1.108 3.225 1.478l-2.4 2.4V3.09c-.855-.78-2.118-1.985-5.042-1.985-3.794 0-6.567 2.972-6.567 7.172 0 4.605 3.38 8.86 8.03 8.86 1.727 0 2.872-.402 3.58-.634v-4.986l-3.36.004.96-.95h5.856l-.875.867c-.114.115-.18.277-.18.453v5.07"/><path d="M52.71 16.28l-.872-.674c-.265-.218-.718-.63-.718-1.06 0-.49.18-.822.523-1.106 1.016-.838 2.02-1.727 2.02-3.51 0-1.693-1.046-2.65-1.647-3.17h1.774l.95-.95h-5.252c-3.473 0-5.232 2.16-5.232 4.558 0 1.855 1.402 3.818 3.944 3.818h1.048c-.092.257-.192.554-.192.893 0 .745.24 1.066.607 1.48-1.088.072-3.12.353-4.62 1.27-1.428.85-1.71 2.038-1.71 2.906 0 1.793 1.54 3.41 5.045 3.41 4.16 0 6.21-2.242 6.21-4.513 0-1.676-.817-2.458-1.878-3.353zm-3.38-2.744c-1.98 0-3.01-2.458-3.01-4.33 0-1.775 1.006-2.58 2.11-2.58 2.12 0 3.17 2.772 3.17 4.448 0 2.066-1.612 2.462-2.27 2.462zm.178 9.6c-2.606 0-4.148-1.246-4.148-2.977 0-1.728 1.48-2.315 2.016-2.512 1.023-.34 2.32-.415 2.544-.415.24 0 .287.018.48.038 1.855 1.327 2.688 1.99 2.688 3.234 0 1.387-1.245 2.632-3.58 2.632z"/><path d="M24.844 17.233c-3.618 0-5.644-2.96-5.644-5.628 0-3.126 2.528-5.796 5.986-5.796 3.346 0 5.534 2.742 5.534 5.626 0 2.814-2.164 5.797-5.876 5.797zm2.88-2.084c.553-.736.686-1.65.686-2.55 0-2.024-.96-5.88-3.792-5.88-.755 0-1.507.3-2.057.78-.89.803-1.05 1.813-1.05 2.802 0 2.276 1.12 6.018 3.88 6.018.896 0 1.81-.435 2.335-1.17z"/></g></g></svg>